#!OML:ASF H:\Dans Jumps\Project 1\Capture day 1\Session 1\subject.ASF
:FULLY-SPECIFIED
:DEGREES
88
root 0.505487 17.552 -13.7846 5.67581 -1.11703 -1.71886
lowerback -1.40905 -0.354368 0.423274
upperback 3.9702 -0.561646 1.64612
thorax 4.90042 -0.29868 1.4329
lowerneck -16.1435 0.839541 -2.12062
upperneck 26.8232 1.8603 -0.178843
head 11.3769 0.597472 0.562932
rclavicle 1.54058e-015 -9.54166e-015
rhumerus -18.699 -10.6607 -84.655
rradius 23.9905
rwrist 32.5952
rhand -19.3893 -26.2855
rfingers 7.12502
rthumb 6.92933 -56.152
lclavicle 1.54058e-015 -9.54166e-015
lhumerus -17.2637 -7.60391 90.7037
lradius 19.5591
lwrist 3.87118
lhand -24.8492 -4.06816
lfingers 7.12502
lthumb 1.65724 25.9052
rfemur -10.7073 -3.84854 20.1443
rtibia 19.7369
rfoot -14.014 -1.43843
rtoes 7.65911
lfemur -9.6748 8.40533 -18.3076
ltibia 17.0311
lfoot -11.8306 1.79386
ltoes -8.14386
89
root 0.506152 17.5521 -13.7852 5.68086 -1.12053 -1.71923
lowerback -1.40857 -0.351804 0.427962
upperback 3.96918 -0.558384 1.64623
thorax 4.89896 -0.296875 1.43056
lowerneck -16.1411 0.838518 -2.12372
upperneck 26.8201 1.8579 -0.172931
head 11.3752 0.596882 0.565244
rclavicle -1.44119e-015 3.37934e-015
rhumerus -18.6954 -10.682 -84.6496
rradius 23.9685
rwrist 32.6281
rhand -19.3797 -26.2856
rfingers 7.12502
rthumb 6.93865 -56.1519
lclavicle -1.44119e-015 3.37934e-015
lhumerus -17.2647 -7.61675 90.7131
lradius 19.5625
lwrist 3.88178
lhand -24.8531 -4.08224
lfingers 7.12502
lthumb 1.65347 25.8911
rfemur -10.7139 -3.85239 20.142
rtibia 19.7357
rfoot -14.0127 -1.42834
rtoes 7.68526
lfemur -9.68242 8.40171 -18.3106
ltibia 17.0316
lfoot -11.8277 1.79775
ltoes -8.13017
90
root 0.506813 17.5523 -13.7859 5.68622 -1.1229 -1.71963
lowerback -1.40768 -0.349857 0.432674
upperback 3.96794 -0.55597 1.64715
thorax 4.89707 -0.295507 1.42901
lowerneck -16.1381 0.838093 -2.12499
upperneck 26.8177 1.85701 -0.171128
head 11.3737 0.596633 0.565958
rclavicle -4.87022e-015 1.31198e-014
rhumerus -18.6922 -10.6943 -84.6448
rradius 23.9484
rwrist 32.6547
rhand -19.3682 -26.2833
rfingers 7.12502
rthumb 6.94972 -56.1492
lclavicle -4.87022e-015 1.31198e-014
lhumerus -17.2651 -7.61822 90.7237
lradius 19.5629
lwrist 3.88896
lhand -24.8608 -4.0938
lfingers 7.12502
lthumb 1.64605 25.8796
rfemur -10.7212 -3.85427 20.14
rtibia 19.7342
rfoot -14.0107 -1.42127
rtoes 7.71146
lfemur -9.69157 8.39944 -18.3137
ltibia 17.0329
lfoot -11.8249 1.79927
ltoes -8.11845
91
root 0.507474 17.5524 -13.7866 5.69222 -1.12605 -1.71948
lowerback -1.40734 -0.347449 0.437299
upperback 3.96607 -0.552924 1.64784
thorax 4.89481 -0.29382 1.4273
lowerneck -16.1337 0.837358 -2.12735
upperneck 26.8163 1.85578 -0.168662
head 11.3722 0.596196 0.567046
rclavicle -1.0138e-014 1.07344e-014
rhumerus -18.6901 -10.7021 -84.641
rradius 23.9295
rwrist 32.6751
rhand -19.3596 -26.2716
rfingers 7.12502
rthumb 6.95805 -56.1373
lclavicle -1.0138e-014 1.07344e-014
lhumerus -17.2678 -7.61326 90.735
lradius 19.5646
lwrist 3.89451
lhand -24.869 -4.0944
lfingers 7.12502
lthumb 1.63809 25.8791
rfemur -10.7306 -3.85531 20.1379
rtibia 19.7327
rfoot -14.0066 -1.4176
rtoes 7.71264
lfemur -9.70145 8.39681 -18.3175
ltibia 17.0347
lfoot -11.8221 1.80132
ltoes -8.10184
92
root 0.508104 17.5525 -13.7873 5.698 -1.12904 -1.72134
lowerback -1.40759 -0.344153 0.444675
upperback 3.96447 -0.548823 1.64877
thorax 4.89313 -0.291509 1.42435
lowerneck -16.1309 0.836013 -2.12909
upperneck 26.8177 1.85394 -0.167313
head 11.3721 0.595363 0.567562
rclavicle -5.71506e-015 1.15295e-014
rhumerus -18.6879 -10.7095 -84.6374
rradius 23.9113
rwrist 32.6936
rhand -19.3509 -26.2581
rfingers 7.12502
rthumb 6.96644 -56.1235
lclavicle -5.71506e-015 1.15295e-014
lhumerus -17.2692 -7.60964 90.7474
lradius 19.5645
lwrist 3.90235
lhand -24.8838 -4.10226
lfingers 7.12502
lthumb 1.62381 25.8713
rfemur -10.74 -3.85329 20.1381
rtibia 19.732
rfoot -14.0023 -1.41616
rtoes 7.71384
lfemur -9.71144 8.39764 -18.3192
ltibia 17.0363
lfoot -11.818 1.80045
ltoes -8.08638
93
root 0.508715 17.5526 -13.7879 5.70211 -1.13117 -1.72172
lowerback -1.40655 -0.34049 0.450882
upperback 3.96247 -0.544133 1.6491
thorax 4.89029 -0.288936 1.42147
lowerneck -16.1272 0.833831 -2.12941
upperneck 26.8212 1.85076 -0.166827
head 11.3728 0.59394 0.567338
rclavicle -4.42296e-015 7.15625e-015
rhumerus -18.6881 -10.7157 -84.6338
rradius 23.8955
rwrist 32.7082
rhand -19.341 -26.2464
rfingers 7.12502
rthumb 6.97598 -56.1115
lclavicle -4.42296e-015 7.15625e-015
lhumerus -17.2711 -7.60765 90.7615
lradius 19.5608
lwrist 3.90665
lhand -24.902 -4.11784
lfingers 7.12502
lthumb 1.60621 25.8559
rfemur -10.7491 -3.85155 20.1372
rtibia 19.7321
rfoot -13.9968 -1.41927
rtoes 7.68711
lfemur -9.71916 8.39644 -18.3223
ltibia 17.0375
lfoot -11.8137 1.80165
ltoes -8.08125
94
root 0.509334 17.5527 -13.7885 5.70425 -1.13206 -1.72141
lowerback -1.40332 -0.33733 0.457006
upperback 3.96025 -0.540069 1.64934
thorax 4.88597 -0.286672 1.41853
lowerneck -16.1251 0.83126 -2.13033
upperneck 26.8272 1.84709 -0.165665
head 11.3747 0.592279 0.567421
rclavicle -3.03147e-015 4.96962e-015
rhumerus -18.6879 -10.7239 -84.6308
rradius 23.8788
rwrist 32.722
rhand -19.3385 -26.2354
rfingers 7.12502
rthumb 6.9784 -56.1004
lclavicle -3.03147e-015 4.96962e-015
lhumerus -17.2746 -7.60392 90.7762
lradius 19.5582
lwrist 3.90606
lhand -24.9209 -4.13872
lfingers 7.12502
lthumb 1.58797 25.8351
rfemur -10.7556 -3.85085 20.1354
rtibia 19.7332
rfoot -13.9928 -1.42129
rtoes 7.66471
lfemur -9.72412 8.39823 -18.3259
ltibia 17.0382
lfoot -11.8112 1.7987
ltoes -8.0752
95
root 0.509968 17.5528 -13.789 5.70505 -1.13298 -1.72057
lowerback -1.39871 -0.334168 0.463101
upperback 3.95713 -0.535986 1.65007
thorax 4.87994 -0.284406 1.41611
lowerneck -16.1244 0.827621 -2.13419
upperneck 26.8366 1.84251 -0.163353
head 11.3781 0.590005 0.568329
rclavicle -4.47266e-015 1.11319e-014
rhumerus -18.6903 -10.7311 -84.6266
rradius 23.8647
rwrist 32.7334
rhand -19.3335 -26.2303
rfingers 7.12502
rthumb 6.98323 -56.0951
lclavicle -4.47266e-015 1.11319e-014
lhumerus -17.2807 -7.60273 90.794
lradius 19.5554
lwrist 3.90376
lhand -24.9403 -4.16642
lfingers 7.12502
lthumb 1.56921 25.8076
rfemur -10.7602 -3.85078 20.1326
rtibia 19.7346
rfoot -13.9894 -1.42288
rtoes 7.64409
lfemur -9.72738 8.40261 -18.3301
ltibia 17.0392
lfoot -11.8095 1.79527
ltoes -8.08134
96
root 0.510625 17.5528 -13.7894 5.70533 -1.13249 -1.71775
lowerback -1.39281 -0.332268 0.467478
upperback 3.95304 -0.533488 1.65091
thorax 4.87221 -0.282992 1.41468
lowerneck -16.1262 0.824945 -2.13689
upperneck 26.8496 1.83952 -0.162483
head 11.3834 0.588321 0.56878
rclavicle 5.06901e-015 1.17283e-014
rhumerus -18.6945 -10.7376 -84.6225
rradius 23.8537
rwrist 32.7455
rhand -19.3228 -26.2327
rfingers 7.12502
rthumb 6.99352 -56.0972
lclavicle 5.06901e-015 1.17283e-014
lhumerus -17.2882 -7.60167 90.8137
lradius 19.5509
lwrist 3.8987
lhand -24.9583 -4.19627
lfingers 7.12502
lthumb 1.55189 25.7778
rfemur -10.7631 -3.85402 20.1274
rtibia 19.7354
rfoot -13.9863 -1.42195
rtoes 7.63178
lfemur -9.73065 8.40826 -18.3363
ltibia 17.0415
lfoot -11.8105 1.78918
ltoes -8.08366
